<svg xmlns="http://www.w3.org/2000/svg" enable-background="new 0 0 2792.727 2792.727" viewBox="0 0 2792.727 2792.727"><path fill="#030202" d="M1841.934 1067.798c-4.329.146-6.06-1.191-6.732-3.42-.71-2.354.494-4.376 2.549-5.48 1.882-1.011 4.05-1.478 6.058-2.27 5.052-1.994 10.181-3.832 15.103-6.111 6.165-2.854 10.662-7.44 12.945-14.005.594-1.708 1.45-3.324 2.132-5.005 3.774-9.296 10.92-14.147 20.591-15.743 4.294-.709 8.575-1.503 12.851-2.316 4.239-.806 7.256-2.915 8.466-7.381 2.282-8.43 7.353-14.84 14.62-19.651 3.986-2.638 6.995-6.261 9.597-10.283 9.417-14.557 23.995-21.651 39.634-27.163.679-.239 1.399-.408 2.114-.493 2.488-.295 5.272 1.515 5.861 3.815.602 2.356-.085 4.437-2.056 5.726-1.8 1.178-3.906 1.886-5.867 2.822-4.576 2.184-9.204 4.268-13.704 6.599-6.903 3.575-12.596 8.562-16.734 15.205-3.313 5.32-7.481 9.833-12.709 13.286-5.083 3.356-8.43 7.913-10.01 13.763-2.23 8.253-7.872 12.805-15.939 14.609-4.242.948-8.53 1.747-12.833 2.353-7.093.997-12.311 4.359-14.449 11.4-4.234 13.942-14.678 21.082-27.601 25.509C1850.694 1065.319 1845.449 1066.734 1841.934 1067.798zM1744.271 1116.28c-2.348-.211-4.69-2.574-5.054-4.975-.344-2.27.332-4.303 1.236-6.311 3.58-7.948 9.163-14.069 17.297-17.272 6.736-2.652 13.778-4.52 20.658-6.813 7.227-2.408 14.477-4.762 21.615-7.414 5.818-2.162 9.695-6.143 10.67-12.628.373-2.481 1.322-4.897 2.186-7.278 2.924-8.062 8.558-13.325 16.729-15.874 1.038-.324 2.112-.549 3.182-.752 7.862-1.494 13.774-5.899 19.029-11.797 4.578-5.14 9.815-9.7 14.847-14.424 2.684-2.519 5.9-4.242 9.43-5.294 2.549-.759 5.375.43 6.539 2.61 1.184 2.216.679 5.358-1.736 6.717-9.709 5.463-16.821 13.776-24.307 21.682-4.872 5.145-10.473 8.954-17.534 10.343-.352.069-.673.311-1.025.363-10.058 1.475-15.049 7.628-16.657 17.369-1.56 9.447-7.591 15.243-16.167 19.032-10.011 4.424-20.535 7.186-30.95 10.329-3.819 1.153-7.768 1.981-11.444 3.482-6.622 2.704-11.904 6.746-13.367 14.483C1748.819 1115.196 1746.74 1116.502 1744.271 1116.28z"/><path fill="#040303" d="M1815.509,1116.384c-1.073-0.063-2.179,0.016-3.211-0.221c-1.895-0.435-3.319-1.657-3.703-3.562
			c-0.451-2.239,0.079-4.271,2.116-5.736c1.893-1.361,4.016-1.548,6.214-1.541c7.539,0.024,13.226-3.25,17.252-9.58
			c0.972-1.529,2.141-2.932,3.223-4.391c8.089-10.911,18.678-17.123,32.501-16.702c4.881,0.149,8.244-1.586,10.992-5.517
			c5.51-7.882,12.836-13.797,21.164-18.488c2.203-1.241,4.51-2.354,6.878-3.229c3.584-1.325,6.954,0.114,8.079,3.189
			c0.787,2.151-0.286,4.619-2.967,6.361c-1.516,0.985-3.2,1.709-4.788,2.588c-7.714,4.269-14.732,9.422-19.685,16.845
			c-4.429,6.638-10.373,9.842-18.365,9.487c-10.688-0.475-18.932,4.065-25.145,12.606c-0.854,1.174-1.904,2.214-2.693,3.427
			C1836.81,1112.01,1827.062,1115.87,1815.509,1116.384z"/><path fill="#090808" d="M1678.054,1108.745c0.388-0.83,1.154-1.426,2.033-1.683c3.743-1.098,7.486-2.197,11.229-3.293
			c8.491-2.485,11.975-0.908,15.315,6.932c5.482,12.866,4.65,15.211-7.766,22.108c-1.558,0.866-3.034,1.879-4.548,2.824
			c-5.722,3.283-7.893-0.955-9.182-4.987c-1.635-5.113-4.012-9.869-5.941-14.829
			C1678.188,1113.478,1676.933,1111.146,1678.054,1108.745z"/><path fill="#030303" d="M915.701,1761.151c-0.271-6.508-0.585-13.014-0.802-19.523c-0.167-5.028-3.168-8.136-7.372-9.801
			c-4.53-1.794-9.154-1.774-13.217,1.819c-4.32,3.82-6.453,8.502-6.815,14.241c-0.755,11.951-0.454,23.879,0.383,35.804
			c0.1,1.426,0.409,2.866,0.833,4.235c0.877,2.832,2.979,4.403,5.518,4.318c2.502-0.084,4.407-2.021,4.643-5.042
			c0.168-2.156,0.073-4.338,0.007-6.506c-0.21-6.875-0.508-13.747-0.664-20.622c-0.041-1.773,0.217-3.572,0.517-5.328
			c0.273-1.603,3.012-1.979,4.317-0.415c0.573,0.687,0.363,2.027,0.508,3.07L915.701,1761.151z"/><path fill="#d5e6e6" d="M1598.517,756.192c-21.672-10.013-44.51-11.8-67.928-9.766c-6.116,0.531-12.271,0.627-18.408,0.923
			c-0.541-0.6-0.76-1.229-0.658-1.887c0.104-0.673,0.236-1.01,0.393-1.009c1.018-0.383,2.07-0.579,3.159-0.56
			c4.139-0.623,8.571,1.378,12.473-1.388c7.801-2.219,15.818-1.814,23.74-1.508c12.315,0.475,24.581,1.657,36.337,5.843
			c6.496,2.313,12.886,4.8,18.242,9.329c0.658,0.601,1.374,1.123,2.14,1.576c1.929,0.493,3.271,1.78,4.452,3.287
			c0.805,0.083,1.308,0.517,1.51,1.3l0.59,0.463c0.69,0.472,1.3,1.032,1.842,1.668l0.349,0.305c0.639,0.632,1.292,1.249,1.96,1.851
			l0.213,0.21c0.05,2.043-0.549,3.303-2.923,2.423c-2.436-1.164-4.277-3.024-5.949-5.082c-0.732-0.45-1.391-0.989-1.977-1.617
			l-0.335-0.2c-0.635-0.842-1.332-1.602-2.431-1.828c-0.614-0.361-1.229-0.722-1.843-1.083c-0.786-0.221-1.416-0.664-1.891-1.328
			l-0.392-0.207C1600.479,757.045,1599.703,756.301,1598.517,756.192z"/><path fill="#d7d8d8" d="M1636.389,788.49c8.544,12.67,14.62,26.614,20.809,40.493c0.403,0.905,0.253,2.081,0.243,3.129
			c-0.003,0.269-0.418,0.695-0.712,0.766c-0.644,0.155-1.56,0.421-1.953,0.115c-0.822-0.642-1.552-1.54-2.015-2.482
			c-6.392-12.984-12.733-25.993-19.086-38.996C1632.862,788.966,1634.047,788.209,1636.389,788.49z"/><path fill="#d1e8e8" d="M1479.106,753.35c-1.896,0.214-3.793,0.427-5.689,0.641c-1.37,0.382-2.739,0.772-4.183,0.729
			c-1.842,0.124-3.8-0.403-5.418,0.972c-1.771,0.565-3.553,0.912-5.387,0.291c-9.462,1.481-18.924,1.483-28.386-0.003
			c-1.834,0.676-3.596,0.259-5.344-0.356c-0.995-0.653-2.196-0.989-2.999-1.942c-0.262-0.838-0.023-1.519,0.649-2.064
			c1.656,0.173,3.311,0.347,4.967,0.52c2.284,0.721,4.741,0.398,7.019,1.156c5.292,0.002,10.583,0.005,15.875,0.007
			c2.825-1.267,5.967-0.134,8.824-1.164c3.526-0.365,7.052-0.729,10.578-1.094c1.637-0.357,3.324-0.507,4.886-1.179
			c4.437-0.749,8.875-1.497,13.312-2.246c1.348,0.649,2.793,0.637,4.24,0.623c1.842,0.034,3.978-0.878,5.063,1.578
			c-3.385,2.162-7.215,1.851-10.967,1.975c-1.138,0.477-2.313,0.77-3.555,0.747C1481.362,752.523,1480.163,752.631,1479.106,753.35z
			"/><path fill="#d1dcdc" d="M1615.999,769.25c0.974-0.808,1.947-1.616,2.922-2.424c4.653,3.305,8.385,7.435,11.151,12.431
			c0.628,2.396-0.434,3.214-2.708,2.899C1623.576,777.854,1619.788,773.552,1615.999,769.25z"/><path fill="#c7fefe" d="M1497.111,749.817c-2.345-0.215-4.689-0.429-7.034-0.644c-0.477-0.391-0.635-0.782-0.477-1.173
			c0.159-0.391,0.318-0.586,0.477-0.586c5.674-1.759,11.471-2.773,17.417-2.891c1.606-0.708,3.142-0.884,4.463,0.585
			c0.075,0.747,0.15,1.493,0.224,2.241c-0.001,0.001-0.267,0.003-0.267,0.003c-2.821,1.791-6.391-0.189-9.169,1.82
			C1500.868,749.387,1498.99,749.602,1497.111,749.817z"/><path fill="#cdd6d6" d="M1430.043,755.979c9.459,0.002,18.918,0.005,28.381,0.005
			C1448.966,758.584,1439.504,758.9,1430.043,755.979z"/><path fill="#ccd1d1" d="M1627.365,782.156c0.902-0.967,1.805-1.934,2.707-2.9c3.047,2.435,5.05,5.582,6.317,9.234
			c-0.905,1.009-1.809,2.017-2.714,3.026C1630.87,788.868,1629.016,785.58,1627.365,782.156z"/><path fill="#879c9c" d="M1211.147,1908.035c-1.068-1.436-0.042-4.08-2.664-4.62c-0.168-1.509,0.438-2.737,1.382-3.85
			c0.683-0.805,1.316-1.678,2.719-1.433C1213.451,1901.533,1213.422,1904.927,1211.147,1908.035z"/><path fill="#8fb9b9" d="M1415.61,753.367c-1.54,0.193-2.664-0.624-3.613-1.643c-0.742-0.798-0.952-1.882-0.285-2.799
			c0.335-0.461,1.211-0.977,1.648-0.841c2.597,0.808,5.56,0.77,7.567,3.044C1419.797,753.401,1417.193,752.172,1415.61,753.367z"/><path fill="#bffefe" d="M1527.547,742.505c-1.439,1.741-3.394,2.246-5.532,2.288c-2.76,0.054-5.52,0.091-8.28,0.136
			c0,0-0.679-0.769-0.679-0.769l0.639-0.802C1518.28,742.543,1522.889,742.126,1527.547,742.505z"/><path fill="#d8ffff" d="M907.722,2056.454c-0.05-0.915-0.1-1.829-0.15-2.744c3.55-0.214,7.1-0.427,10.652-0.643
			c0.012,1.102,0.022,2.206,0.032,3.311C914.764,2059.094,911.252,2059.092,907.722,2056.454z"/><path fill="#cdd6d6" d="M1459.032,752.135c-2.654,2.572-5.796,1.456-8.826,1.165
			C1453.046,752.125,1455.983,751.707,1459.032,752.135z"/><path fill="#bac1c1" d="M1502.746,749.172c2.663-2.589,5.83-2.639,9.169-1.82
			C1509.23,749.83,1505.978,749.453,1502.746,749.172z"/><path fill="#effbfb" d="M1415.61,753.367c1.149-2.221,3.567-1.433,5.314-2.24c0.573-0.117,1.048,0.046,1.425,0.49
			c-0.029,0.574-0.064,1.147-0.106,1.72c-1.149,1.711-2.527,1.508-4.005,0.481C1417.362,753.668,1416.486,753.517,1415.61,753.367z"/><path fill="#bac1c1" d="M1513.696,743.357c0.297,0.515,0.312,1.039,0.044,1.571c-0.606-0.027-1.199,0.032-1.782,0.179
			c-1.491-0.194-2.983-0.388-4.468-0.583C1509.347,742.993,1511.447,742.779,1513.696,743.357z"/><path fill="#cdd6d6" d="M1418.238 753.818c1.336-.158 2.672-.317 4.006-.478.817.759 1.635 1.521 2.454 2.283C1422.264 756.025 1420.068 755.575 1418.238 753.818zM1434.334 753.292c-2.455.285-5.003 1.141-7.026-1.157C1429.778 751.771 1432.133 752.064 1434.334 753.292z"/><path fill="#c5d2d2" d="M1474.496 749.862c-1.311 1.71-3.051 1.645-4.886 1.179C1471.031 749.783 1472.682 749.483 1474.496 749.862zM1468.285 753.707c1.709.095 3.418.19 5.129.284-1.491 1.292-3.216 1.658-5.128 1.278-.714-.346-.951-.693-.715-1.041C1467.806 753.882 1468.043 753.707 1468.285 753.707z"/><path fill="#cdd6d6" d="M1468.285,753.707c-0.025,0.521-0.025,1.042,0.001,1.562c-1.49,0.141-2.979,0.281-4.47,0.422
			C1464.886,754.085,1466.487,753.674,1468.285,753.707z"/><path fill="#c5d2d2" d="M1481.377,751.555c1.59,0.079,3.181,0.158,4.77,0.237c-1.397,1.142-2.966,1.636-4.764,1.281
			C1481.38,752.567,1481.379,752.061,1481.377,751.555z"/><path fill="#a1d1d1" d="M1091.193,1997.363c-1.124,1.749-2.537,2.849-4.764,2.127
			C1087.541,1997.718,1089.132,1997.016,1091.193,1997.363z"/><path fill="#a1d1d1" d="M1086.452,1999.482c0.067,0.678-0.024,1.335-0.277,1.969c-1.407,0.581-2.618,0.428-3.517-0.918
			c0.923-0.387,1.832-0.811,2.775-1.14C1085.727,1999.291,1086.11,1999.445,1086.452,1999.482z"/><path fill="#cdd6d6" d="M1481.377,751.555c-0.027,0.506-0.025,1.012,0.005,1.518c-0.758,0.092-1.517,0.184-2.275,0.277
			C1479.863,752.752,1480.62,752.153,1481.377,751.555z"/><path fill="#c6fefe" d="M1490.078,747.413c0,0.588-0.001,1.175,0,1.761c-0.755-0.52-1.511-1.039-2.268-1.558
			C1488.565,747.548,1489.321,747.481,1490.078,747.413z"/><path fill="#d1dcdc" d="M1608.073,762.551c0.659,0.539,1.318,1.078,1.977,1.617
			C1608.962,764.154,1608.353,763.553,1608.073,762.551z"/><path fill="#ccd2d2" d="M1608.007 757.744c-1.108.008-1.788-.565-2.142-1.577C1607.055 756.048 1607.705 756.66 1608.007 757.744zM1601.573 758.113c.986-.062 1.624.371 1.892 1.329C1602.834 758.998 1602.203 758.555 1601.573 758.113zM1605.307 760.523c1.244.034 2.023.685 2.431 1.828C1606.497 762.315 1605.714 761.668 1605.307 760.523z"/><path fill="#d1dcdc" d="M1613.968,762.331c-0.763-0.137-1.268-0.572-1.512-1.302
			C1613.346,761.018,1613.841,761.461,1613.968,762.331z"/><path fill="#c6d5d5" d="M1333.297,702.778c0.271-0.714,0.785-1.103,1.536-1.161
			C1334.611,702.409,1334.102,702.794,1333.297,702.778z"/><path fill="#d1dcdc" d="M1618.709 766.617c-.654-.618-1.309-1.236-1.962-1.852C1617.901 764.856 1618.533 765.495 1618.709 766.617zM1616.4 764.462c-.616-.557-1.231-1.115-1.844-1.67C1615.644 762.828 1616.214 763.433 1616.4 764.462z"/><path fill="#cad8d8" d="M1355.089,689.778c0.619-0.4,1.238-0.8,1.85-1.197
			C1356.622,689.451,1356.082,689.964,1355.089,689.778z"/><path fill="#d2d6d6" d="M1589.253,649.087c1.438,0.105,2.564,0.71,3.247,2.024
			C1590.989,651.124,1589.904,650.453,1589.253,649.087z"/><path fill="#ccd2d2" d="M1598.517,756.192c1.283-0.041,2.163,0.544,2.666,1.714
			C1599.902,757.943,1599.04,757.332,1598.517,756.192z"/><path fill="#020101" d="M1473.071,1691.965c-3.105-0.106-5.592-3.702-4.207-6.24c1.201-2.201,2.844-4.174,4.39-6.172
			c21.4-27.647,45.321-53,70.57-77.114c29.95-28.604,59.806-57.319,91.957-83.505c16.341-13.309,33.118-26.032,50.596-37.814
			c2.995-2.019,6.14-3.86,9.374-5.464c2.686-1.332,5.231-0.599,6.829,1.417c1.523,1.922,1.233,4.744-1.006,6.823
			c-1.853,1.72-3.877,3.295-5.984,4.697c-33.964,22.598-65.268,48.525-95.187,76.166c-15.21,14.052-30.256,28.284-45.294,42.521
			c-25.355,24.005-49.119,49.51-71.534,76.278c-1.862,2.223-3.792,4.392-5.763,6.52
			C1476.52,1691.472,1474.862,1692.129,1473.071,1691.965z"/><path fill="#020202" d="M1847.761,1711.961c-0.855,3.083-1.947,8.06-3.607,12.839
			c-8.547,24.605-20.825,47.124-37.986,66.844c-19.923,22.894-42.504,42.771-67.796,59.553
			c-8.475,5.623-17.026,11.133-25.502,16.756c-10.034,6.656-20.919,11.635-31.967,16.283c-1.983,0.834-4.126,1.466-6.253,1.73
			c-2.366,0.295-4.295-0.958-5.206-3.157c-0.935-2.258-0.224-4.362,1.79-5.706c1.477-0.986,3.197-1.625,4.844-2.337
			c11.022-4.765,21.614-10.303,31.602-17.009c16.584-11.134,33.731-21.435,49.218-34.172c12.946-10.647,25.081-22.116,36.397-34.466
			c19.717-21.518,33.682-46.296,42.047-74.248c0.728-2.434,1.448-4.889,2.438-7.221c1.377-3.244,4.461-4.877,6.84-3.893
			C1846.997,1704.743,1848.061,1706.799,1847.761,1711.961z"/><path fill="#040303" d="M1457.788 1098.149c-8.369-.307-16.184-1.586-23.464-5.188-2.266-1.12-4.534-2.337-5.727-4.778-.827-1.693-1.1-3.367-.124-5.158 1.199-2.2 3.119-2.937 5.413-2.784 1.045.07 2.193.395 3.066.958 10.567 6.818 22.074 6.117 33.647 4.073 11.542-2.039 22.257-6.328 31.835-13.166 6.576-4.694 12.142-10.147 14.563-18.329 1.306-4.415 4.227-6.067 7.041-5.246 3.215.938 4.561 4.473 3.563 9.061-1.112 5.111-3.889 9.327-7.108 13.276-4.87 5.972-10.926 10.549-17.544 14.404C1488.892 1093.459 1473.662 1097.514 1457.788 1098.149zM1536.589 858.537c18.181-.093 34.058 5.889 47.632 18.003 7.9 7.05 14.486 15.219 20.368 23.967 1.187 1.766 2.036 3.836 2.663 5.881.647 2.108-1.222 5.338-3.444 6.18-2.24.848-4.359.333-5.844-1.581-1.326-1.709-2.337-3.66-3.592-5.429-4.83-6.81-9.872-13.464-16.111-19.069-18.228-16.377-39.038-21.048-62.467-13.577-.685.218-1.335.56-2.029.736-3.414.868-6.42-.323-7.336-2.867-.84-2.333.747-5.335 3.733-7.058C1515.274 860.773 1526.828 858.506 1536.589 858.537z"/><path fill="#050404" d="M1412.184,875.987c2.543,0,5.102-0.166,7.624,0.067c1.368,0.126,2.813,0.721,3.973,1.484
			c1.543,1.015,2.601,2.56,2.299,4.575c-0.29,1.937-1.531,3.441-3.24,4.043c-1.642,0.578-3.561,0.747-5.31,0.582
			c-12.675-1.199-24.477,2.082-36.025,6.778c-10.441,4.246-18.689,11.067-24.358,20.873c-2.362,4.086-4.509,8.302-7.002,12.303
			c-1.916,3.075-4.977,3.793-7.409,2.159c-2.747-1.846-3.667-4.327-2.177-7.559c7.478-16.221,17.396-30.142,34.669-37.414
			C1387.091,878.883,1399.258,875.724,1412.184,875.987z"/><path fill="#080707" d="M1468.855,994.187c-0.171,5.293-1.131,9.138-2.913,12.762c-1.278,2.599-2.806,5.09-3.912,7.757
			c-2.747,6.627-1.43,11.577,4.237,16.358c1.37,1.155,3.092,1.904,4.414,3.103c2.642,2.396,1.622,6.405-1.72,7.98
			c-2.606,1.229-5.005,0.636-7.313-0.453c-7.757-3.661-13.699-15.288-11.98-23.685c0.574-2.803,1.573-5.595,2.841-8.164
			c2.724-5.521,5.802-10.86,6.85-17.063c0.165-0.975,0.861-2.005,1.6-2.706c1.411-1.338,3.203-1.505,5.058-0.973
			c1.577,0.453,2.32,1.665,2.644,3.12C1468.892,993.266,1468.87,994.363,1468.855,994.187z"/><path fill="#192929" d="M916.753,2060.212c-0.735,2.335-1.934,4.372-3.805,5.97c-2.289-1.304-3.171-3.53-3.924-5.843
			C911.53,2056.011,914.104,2055.828,916.753,2060.212z"/><path fill="#9c6969" d="M916.753,2060.212c-3.442-2.72-4.226-2.706-7.725,0.134c-1.8-0.844-1.27-2.463-1.307-3.892
			c3.513-0.026,7.024-0.05,10.535-0.076C918.364,2057.894,918.361,2059.368,916.753,2060.212z"/><path fill="#030303" d="M1416.132,942.014c-7.693-8.706-19.995-8.36-27.329,0.691c-7.044,8.694-7.381,23.642-0.599,32.472
			c4.569,5.948,10.741,8.546,18.133,7.337c6.938-1.135,11.7-5.199,14.246-11.875c1.318-3.455,1.821-6.973,1.734-10.281
			C1422.493,953.249,1420.657,947.135,1416.132,942.014z M1400.365,964.813c-0.174,0.413-0.633,1.73-1.268,2.957
			c-0.864,1.667-3.39,1.907-4.474,0.506c-2.85-3.683-3.493-7.715-1.606-11.975c0.362-0.816,1.524-1.669,2.395-1.76
			c0.888-0.093,2.277,0.473,2.741,1.201C1399.694,958.163,1400.629,960.866,1400.365,964.813z M1407.58,967.307
			c-0.524-0.194-1.188-0.783-1.258-1.269c-0.162-1.117,0.483-2.017,1.65-2.113c1.344-0.11,1.507,1.024,1.694,2.019
			C1409.423,967.098,1408.745,967.738,1407.58,967.307z"/><path fill="#040404" d="M1571.943,929.725c-8.474-8.033-19.554-7.117-26.011,2.529c-4.836,7.225-6.558,15.138-3.708,23.708
			c2.323,6.986,6.981,11.399,13.791,14.171c6.707,2.73,16.662,0.276,20.583-8.979c1.549-3.658,2.292-7.584,2.452-12.057
			C1578.469,942.304,1577.678,935.162,1571.943,929.725z M1561.844,953.697c-0.391,1.502-1.498,2.61-2.952,2.832
			c-1.468,0.223-2.776-0.563-3.565-1.933c-2.692-4.672-2.922-9.631-1.358-14.649c0.392-1.258,1.606-2.563,3.198-2.377
			c0.939,0.11,2.079,0.777,2.627,1.55c2.171,3.063,2.768,6.619,2.678,11.273C1562.384,950.874,1562.205,952.309,1561.844,953.697z
			 M1570.507,954.967c-0.802,1.375-1.967,2.244-3.465,1.333c-1.206-0.733-2.298-1.993-1.391-3.547
			c0.477-0.817,1.5-1.702,2.373-1.814C1569.543,950.744,1571.011,953.356,1570.507,954.967z"/><path d="M1575.238 639.958l-.002 0c.003.004.006.007.009.011C1575.242 639.966 1575.24 639.962 1575.238 639.958zM1345.436 692.066c-.01 0-.02 0-.03 0 .012.008.024.012.036.021C1345.441 692.08 1345.437 692.073 1345.436 692.066z"/><path d="M2202.574,1992.866c-0.241-0.947-0.916-1.969-1.697-2.555c-1.85-1.388-4.102-1.181-6.289-1.131
			c-27.263,0.626-54.527,1.182-81.789,1.865c-46.888,1.175-93.774,2.439-140.662,3.613c-2.863,0.072-5.815,0.63-8.881-0.784
			c-0.883-4.422-2.014-8.991-2.66-13.627c-0.651-4.669-1.041-9.4-1.162-14.114c-0.561-21.807-0.735-43.627-1.515-65.425
			c-1.756-49.063-5.82-97.968-10.553-146.823c-3.434-35.449-6.988-70.888-10.094-106.366c-2.442-27.891-5.765-55.673-9.727-83.37
			c-4.475-31.285-9.362-62.515-14.457-93.706c-4.801-29.392-10.35-58.65-17.548-87.573c-7.038-28.281-16.223-55.746-29.951-81.58
			c-7.737-14.561-17.191-27.825-28.913-39.399c-28.246-27.891-61.239-47.647-99.94-57.218c-27.586-6.823-55.862-9.272-84.019-12.375
			c-1.385-0.153-2.931,0.081-4.24,0.569c-1.797,0.671-3.063,2.288-3.006,4.151c0.039,1.266,0.922,2.766,1.887,3.671
			c0.981,0.921,2.476,1.562,3.831,1.77c6.099,0.935,12.242,1.576,18.343,2.497c19.036,2.875,38.084,5.679,57.071,8.853
			c4.879,0.816,10.062,1.385,14.152,4.45c-0.296,1.876-1.597,2.651-2.792,3.429c-18.265,11.887-36.472,23.866-54.845,35.583
			c-27.572,17.585-56.324,33.154-84.841,49.113c-25.162,14.082-51.638,24.759-79.983,30.726
			c-22.382,4.711-43.28,2.101-62.599-10.622c-4.578-3.015-8.849-6.363-12.45-10.52c-2.529-2.92-2.708-3.913-0.487-6.534
			c12.412-14.644,26.788-26.502,45.353-32.731c14.097-4.73,28-10.038,42.05-14.912c19.143-6.639,34.558-18.17,46.495-34.518
			c11.245-15.4,19.232-32.407,25.683-50.262c2.205-6.102,2.986-12.697,6.387-18.374c6.382-1.367,12.796-2.6,19.14-4.125
			c19.402-4.666,33.788-8.403,52.855-14.336c-7.31-8.931-12.673-27.471-12.673-30.611c-1.748,0.488-37.21,8.04-55.342,13.334
			c-0.348,0.102-0.67,0.311-1.021,0.377c-1.506,0.284-2.918,0.21-3.496-1.535c-0.59-1.785,0.686-2.806,1.937-3.391
			c9.013-4.217,14.642-11.736,19.484-19.956c2.39-4.057,4.507-8.293,6.489-12.568c6.746-14.553,11.193-29.883,15.129-45.382
			c0.944-3.719,2.039-7.4,3.055-11.063c13.994,3.826,20.687,1.811,29.303-8.758c2.285-2.802,4.357-5.844,6.089-9.014
			c2.083-3.81,3.866-7.807,5.485-11.841c6.866-17.103,9.513-35.013,9.419-53.318c-0.044-8.709-0.776-17.447-3.418-25.855
			c-0.868-2.763-1.906-5.493-3.121-8.12c-1.291-2.793-2.884-5.446-4.622-8.675c7.298-2.961,13.645-6.42,19.49-10.746
			c11.027-8.161,16.973-18.435,15.111-32.741c-2.626-20.181-6.268-40.162-10.641-60.02c-2.653-12.048-6.895-23.714-8.723-35.964
			c-3.017-20.219-9.231-39.552-16.124-58.711c-4.656-12.942-12.159-23.783-22.511-32.876c-14.209-12.482-28.877-24.393-43.723-36.09
			c-10.583-8.338-21.851-15.643-34.299-20.959c-13.68-5.843-27.687-7.823-42.57-5.176c-18.308,3.257-36.785,4.312-55.336,1.268
			c-9.315-1.528-18.719-2.534-28.097-3.649c-19.673-2.338-38.398,0.903-55.92,10.188c-7.371,3.906-14.678,8.029-21.591,12.681
			c-24.434,16.44-50.479,30.068-76.305,44.18c-24.805,26.074-46.385,54.559-66.102,84.399c-3.996,6.046-7.505,12.442-10.861,18.874
			c-2.686,5.149-4.359,10.694-5.5,16.461c-3.085,15.601,0.288,30.33,5.557,44.824c1.858,5.109,4.225,10.031,6.282,15.071
			c3.088,7.566,4.104,15.207,2.373,23.429c-1.867,8.862-3.313,17.865-2.785,27.042c1.142,19.867,8.161,36.705,24.709,48.749
			c1.14,0.829,2.137,1.855,3.484,3.04c-5.521,7.966-7.156,16.739-7.134,25.948c0.018,8.03,0.85,15.955,2.798,23.758
			c3.46,13.856,8.742,26.911,16.993,38.654c4.218,6.003,9.093,11.406,15.565,15.02c6.01,3.355,12.274,4.314,18.669,0.792
			c1.229-0.677,2.56-1.171,4.219-1.919c3.083,5.626,5.945,11.058,9.019,16.367c1.402,2.422,1.168,4.859,0.883,7.39
			c-1.544,13.718-2.913,27.46-4.696,41.147c-1.031,7.914-2.772,15.709-5.733,23.208c-4.458,11.29-11.679,19.975-22.746,25.26
			c-2.619,1.251-5.235,2.509-7.821,3.827c-24.969,12.728-43.55,31.192-52.361,58.405c-1.565,4.834-3.265,9.635-4.597,14.534
			c-4.094,15.056-7.745,30.238-12.121,45.21c-4.886,16.716-10.224,33.305-15.639,49.859c-10.623,32.473-19.456,65.434-25.981,98.947
			c-5.273,27.08-9.715,54.33-14.079,81.576c-4.652,29.048-8.793,58.179-13.13,87.277c-3.427,22.99-6.562,46.027-10.282,68.969
			c-4.148,25.574-5.951,51.227-4.482,77.109c0.246,4.341,0.343,8.763-0.18,13.064c-2.319,19.076-9.516,35.548-25.36,47.567
			c-7.279,5.522-14.883,10.372-23.084,14.329c-17.096,8.247-32.814,18.601-47.614,30.474c-9.697,7.78-17.919,16.969-26.504,25.857
			c-14.563,15.076-18.293,17.62-42.7,12.107c-0.354-0.08-0.694-0.212-1.044-0.311c-12.209-3.465-24.448-6.825-36.61-10.446
			c-4.456-1.326-10.163-1.02-12.979-4.703c-2.786-3.644-1.425-9.094-1.806-13.759c-0.03-0.362-0.021-0.727-0.032-1.09
			c-1.005-32.337-2.011-64.674-3.018-97.011c-0.068-2.18-0.249-6.536-0.249-6.536l-11.492-2.755c0,0,0.501,8.913,0.566,11.093
			c0.987,32.699,1.996,65.397,2.921,98.098c0.079,2.798,1.07,5.776-1.238,8.882c-11.335-3.04-22.943-5.869-34.369-9.306
			c-9.128-2.746-18.42-4.189-27.846-4.811c-14.924-0.984-26.936,4.469-35.638,16.864c-6.597,9.396-10.527,19.814-12.296,31.102
			c-0.449,2.866-0.834,5.744-1.331,8.603c-1.133,6.515-4.479,11.414-10.591,14.235c-14.34,6.622-21.016,18.672-22.355,34.72
			c-4.43,18.748-5.443,22.223-18.2,21.924c-25.8-0.604-51.598-1.328-77.396-1.975c-25.071-0.629-50.144-1.221-75.215-1.83
			c-1.206,3.487-1.028,7.08-0.813,10.676c1.438,0.18,2.874,0.484,4.315,0.522c23.262,0.605,46.524,1.177,69.787,1.756
			c4.361,0.108,8.727,0.136,13.083,0.351c3.01,0.148,3.911,1.257,3.44,4.052c-0.421,2.505-0.979,4.991-1.566,7.464
			c-11.924,50.164-23.861,100.324-35.79,150.486c-0.756,3.179-1.611,6.344-2.161,9.56c-0.825,4.822,1.608,7.596,6.615,7.661
			c1.81,0.023,3.623-0.263,5.434-0.426c9.773-0.881,19.549-1.734,29.318-2.659c18.092-1.712,36.18-3.451,54.267-5.209
			c19.171-1.864,38.337-3.784,57.508-5.641c18.088-1.752,36.183-3.422,54.269-5.188c18.809-1.836,37.605-3.784,56.415-5.606
			c18.448-1.787,36.911-3.44,55.36-5.219c27.854-2.685,55.704-5.412,83.553-8.152c13.382-1.317,26.747-2.815,40.142-3.996
			c4.622-0.408,7.385-2.471,8.602-6.884c0.481-1.744,1.255-3.406,1.848-5.122c5.928-17.154,11.845-34.313,17.768-51.468
			c7.344-21.274,14.793-42.512,21.958-63.846c1.603-4.773,4.14-6.842,9.262-7.097c18.513-0.919,37.019-2.062,55.495-3.532
			c4.933-0.393,8.396,0.838,11.228,4.753c1.267,1.751,2.897,3.267,4.496,4.746c14.266,13.195,29.752,24.217,48.759,29.897
			c16.863,5.04,32.295,2.604,46.858-6.719c7.647-4.896,15.198-9.957,22.602-15.213c3.658-2.597,7.254-4.051,11.919-4.15
			c46.892-1.004,93.777-2.273,140.665-3.445c58.52-1.462,117.04-2.903,175.56-4.355c58.883-1.461,117.766-2.949,176.649-4.376
			c49.434-1.198,98.871-2.275,148.305-3.496c47.615-1.177,95.228-2.474,142.841-3.708c21.081-0.546,42.163-1.047,63.243-1.613
			c2.876-0.078,5.855,0.274,8.543-1.146C2202.19,1995.715,2202.966,1994.406,2202.574,1992.866z M1595.23,1165.321
			c-5.419,14.659-11.496,29.025-19.376,42.543c-2.918,5.006-6.298,9.763-9.714,14.454c-9.694,13.312-22.531,22.531-37.902,28.189
			c-13.951,5.136-27.878,10.383-42.029,14.918c-23.839,7.639-41.657,23.059-56.633,42.384c-4.069,5.25-6.276,11.407-8.406,18.88
			c-2.204-1.442-3.756-2.353-5.195-3.416c-13.046-9.635-34.373-8.415-47.116,9.107c-2.797,3.846-4.979,8.007-6.253,12.613
			c-0.804,2.906-2.724,3.937-5.691,3.727c-7.973-0.562-15.961-0.895-23.931-1.495c-3.044-0.229-4.122-1.455-3.785-4.097
			c1.835-14.423,1.226-29.013,3.38-43.442c2.207-14.784,5.292-29.257,10.649-43.238c2.623-6.844,6.056-13.206,10.512-18.982
			c20.91-27.099,48.83-43.514,85.69-45.576c13.36-12.691,26.398-25.354,37.369-39.955c5.234-6.966,10.682-13.784,16.28-20.462
			c3.743-4.466,8.062-8.396,13.531-10.77c2.979-1.293,6.054,0.237,6.652,3.404c0.753,3.986,0.573,7.983-0.688,11.848
			c-2.812,8.62-5.496,17.291-8.641,25.789c-3.778,10.21-7.731,20.352-10.574,30.876c-0.465,1.722-1.032,3.549-0.884,5.271
			c0.195,2.263,1.601,4.024,3.985,4.598c2.355,0.567,4.504-0.111,5.648-2.195c1.207-2.198,2.094-4.628,2.764-7.056
			c4.563-16.529,12.126-31.835,19.154-47.361c1.965-4.342,4.42-8.359,7.891-11.656c1.36-1.292,3.126-1.93,4.98-1.154
			c1.46,0.611,2.151,2.068,2.19,3.514c0.068,2.515,0.157,5.118-0.394,7.542c-1.283,5.649-2.688,11.297-4.498,16.796
			c-3.97,12.061-8.24,24.023-12.343,36.04c-0.699,2.047-1.385,4.137-1.707,6.263c-0.409,2.698,1.388,5.202,3.807,5.852
			c2.409,0.647,5.099-0.53,6.347-3.04c0.963-1.938,1.728-3.991,2.419-6.047c4.046-12.035,8.074-24.076,12.051-36.133
			c4.689-14.217,11.927-27.223,19.16-40.217c1.727-3.103,3.617-6.529,7.593-7.316c2.057-0.407,3.378,4.823,2.501,10.751
			c-1.604,10.845-5.1,21.153-9.343,31.21c-6.629,15.712-13.384,31.372-20.012,47.084c-1.265,2.999-2.208,6.135-3.271,9.217
			c-0.64,1.855-0.119,3.602,0.717,5.244c0.896,1.76,2.457,2.598,4.4,2.699c1.952,0.102,3.568-0.535,4.51-2.355
			c0.499-0.963,0.913-1.973,1.331-2.976c8.806-21.172,17.372-42.447,26.821-63.342c1.814-8.844,5.213-17.237,8.611-25.582
			c0.807-1.98,2-3.86,3.303-5.566c1.604-2.1,4.951-1.421,6.373,0.97c1.752,2.948,2.019,6.218,2.119,9.463
			C1599.92,1144.098,1599.08,1154.907,1595.23,1165.321z M1401.91,1356.616c0.246,2.363-1.708,4.735-4.266,5.179
			c-2.96,0.514-5.616-1.314-6.204-4.27c-0.485-2.439,1.363-4.669,4.155-5.013C1398.836,1352.113,1401.63,1353.929,1401.91,1356.616z
			 M1683.866,997.687c-2.617,6.407-5.817,12.507-10.571,17.647c-1.99,2.153-4.171,4.002-7.208,4.582
			c-4.494,0.858-9.075-2.713-8.616-7.212c0.515-5.044,1.568-10.034,2.388-15.047c4.105-25.109,6.393-50.417,7.945-75.787
			c0.332-5.421,2.912-8.773,7.188-11.3c3.534-2.089,6.904-1.404,9.711,1.803c2.942,3.361,4.41,7.451,5.668,11.636
			c2.542,8.456,2.758,17.167,2.806,21.815C1693.128,966.425,1690.118,982.382,1683.866,997.687z M1632.082,687.978
			c0.313-0.467,1.222-0.914,1.748-0.801c3.414,0.736,5.946,2.662,7.86,5.361c0.519,0.731,0.885,1.489,1.663,1.934
			c0.382,0.219,0.682,0.521,0.896,0.905c0.512,0.919,1.485,1.642,2.276,2.337c7.322,6.44,13.154,14.084,17.774,22.705
			c8.546,11.324,14.472,24.097,20.042,37.006c8.902,20.63,15.688,41.884,18.276,64.36c1.38,11.987,1.066,23.852-1.534,35.574
			c-1.4,6.312-3.335,12.655-9.864,15.966c-0.598,0.331-1.209,0.521-1.835,0.541c-0.781,0.117-2.019,0.301-2.8,0.418
			c-1.187,0.327-2.334,0.193-3.535-0.258c-0.517-0.194-0.78-0.77-0.591-1.289c0.207-0.567,0.606-0.984,1.371-1.063
			c1.367-0.141,2.51-0.345,3.884-0.426c0.195-0.127,0.475-0.216,0.648-0.389c5.174-4.032,7.32-9.625,8.584-15.848
			c3.165-15.592,2.045-31.104-1.132-46.456c-5.548-26.807-15.395-52.04-29.018-75.795c-1.792-3.124-3.397-6.355-5.088-9.537
			c-6.454-8.148-12.908-16.295-19.361-24.443c0,0,0-0.001,0-0.001c0,0-0.001,0.001-0.001,0.001l-0.021-0.022
			c-1.267-1.295-2.693-2.417-4.2-3.422c-2.281-1.521-4.303-3.362-6.088-5.463C1631.715,689.494,1631.774,688.437,1632.082,687.978z
			 M1441.087,644.312c2.127-1.724,3.574-3.007,6.274-3.906c0.224-0.184,0.506-0.239,0.815-0.431
			c12.854-5.927,26.132-8.441,40.181-5.142c7.764,1.823,15.558,3.512,23.339,5.262c8.608,1.26,17.22,1.181,25.834,0.059
			c2.54-0.599,5.083-1.135,7.704-0.506c0.622-0.248,1.248-0.429,1.877-0.576c8.542-2.452,17.185-2.459,25.904-0.534
			c-0.017,0.086-0.034,0.173-0.051,0.259l2.022,0.661l-0.104,0.02c2.558-0.324,4.938-0.682,6.567,1.87l0.326,0.16
			c0.796,0.458,1.074,0.326,2.137,1.012c0.924-0.055,1.813,0.667,2.831,1.129c3.84,0.688,6.984,2.734,9.961,5.108
			c0,0.001-0.001,0.001-0.001,0.002c0.001-0.001,0.002-0.001,0.003-0.002c6.994,3.047,12.554,8.001,17.711,13.453
			c1.17,1.237,2.7,2.792,0.852,4.517c-1.299,1.212-2.731,0.201-3.677-0.788c-5.707-5.97-12.704-10.284-19.25-15.177
			c0,0,0-0.001,0-0.001c0,0-0.001,0-0.002,0c0.001,0.001-0.207-0.129-0.207-0.129c-0.829-1.082-1.816-1.908-3.247-2.024
			c-2.087,0.284-3.555-0.817-4.901-2.191c-9.452-3.594-19.241-5.006-29.321-4.538c-1.206,0.122-2.412,0.245-3.619,0.367
			c-2.764,1.596-6.132-0.24-8.861,1.559c-2.715,0.208-5.431,0.417-8.146,0.625c-6.348,1.221-12.695,1.102-19.041-0.018
			c-6.255,0.787-11.968-1.956-17.975-2.797c-2.116-0.296-4.169-1.039-6.249-1.586c-11.427-3.008-22.721-2.49-33.918,1.197
			c-1.345,0.443-2.794,0.564-4.196,0.835c-0.111,0.055-0.221,0.106-0.331,0.157l-1.122,0.707c-3.093,1.742-4.371,3.096-7.461,4.839
			c-1.387,0.782-2.705,0.866-3.542-0.701C1439.623,645.974,1440.24,644.999,1441.087,644.312z M1272.001,869.625
			c-0.235,2.772-0.223,5.604-1.27,8.181c-0.623,1.533-1.512,6.463-1.584,6.406c-0.204,9.279-1.559,18.608,1.292,27.76
			c0.151,0.485-0.369,1.489-0.862,1.8c-0.972,0.613-2.104,0.38-2.731-0.64c-0.746-1.212-1.593-2.485-1.875-3.84
			c-2.236-10.765-2.234-21.437,1.757-31.872c0.137-4.484,1.321-8.738,2.829-12.921c0.098-0.138,0.355-4.333,0.945-6.225
			c0.092-1.097,0.307-2.184,0.772-3.25c0.063-14.115-0.177-28.239,0.255-42.343c0.837-27.283,8.195-52.767,22.223-76.244
			c1.096-1.834,19.501-22.095,19.502-22.095c0,0,1.71-2.723,1.71-2.723c2.522-3.96,6.17-6.598,10.215-8.77
			c0.143-0.054,0.288-0.108,0.431-0.161c1.107-0.289,1.904-1.003,2.526-1.956l0.055-0.034c0.745-0.61,1.509-1.195,2.294-1.752
			c0.154-0.612,0.528-0.809,1.121-0.593c0.973-0.246,1.951-0.467,2.933-0.671c0.008-0.05,0.006-0.101,0.02-0.151
			c0.145-0.51,0.293-0.766,0.447-0.766c1.863-2.074,5.471-4.11,6.466-4.698c1.367-0.905,2.432-1.379,4.554-2.115
			c0.103-0.046,0.209-0.093,0.312-0.138c0.563-0.31,1.19-0.622,1.884-1.035c0.583-0.293,1.187-0.562,1.818-0.796
			c0.899-0.458,1.757-0.985,2.584-1.562c0.549-0.311,0.984-0.416,1.602-0.663c1.113-0.233,1.906-1.011,2.797-1.624
			c0.53-0.304,0.71-0.259,1.377-0.566c1.25-0.145,2.099-0.989,3.012-1.722c1.781-0.941,3.716-1.736,5.255-2.571
			c1.281-0.455,2.461-0.876,3.282-1.99l0.122-0.073c-0.119-0.143,17.831-11.886,26.955-17.501c0.417-0.256,1.397,0.109,1.96,0.445
			c1.195,0.714,0.983,2,0.292,2.722c-1.716,1.795-3.488,3.645-5.559,4.973c-6.304,4.045-19.366,11.243-19.259,11.424
			c-2.685,2.078-5.503,3.908-8.829,4.785c-0.193,0.051-0.376,0.132-0.544,0.24c-0.267,0.171-0.463,0.282-0.75,0.466
			c-1.035,0.522-2.065,1.04-3.1,1.562c-0.724,0.267-1.247,0.51-1.824,0.997c-0.828,0.374-1.554,0.829-2.374,1.211
			c-0.07,0.038-0.141,0.077-0.21,0.115c-0.493,0.316-0.984,0.634-1.474,0.953c-0.672,0.328-1.338,0.653-2.01,0.981
			c-0.926,0.309-1.732,0.804-2.468,1.408c0.041,0.028,0.078,0.05,0.119,0.078c-0.074,0-0.148,0-0.222,0
			c-0.037,0.031-0.079,0.055-0.115,0.087c-0.344,0.506-0.786,0.781-1.326,0.823c-0.41,0.032-0.794,0.204-1.103,0.474
			c-3.076,2.694-6.72,4.44-10.422,6.096c-0.189-0.035-0.377-0.071-0.566-0.106c-0.617,1.012-1.602,1.495-2.78,1.7
			c-0.404,0.525-0.914,0.91-1.529,1.156c-5.142,3.938-15.459,12.692-15.057,12.292c-0.402,0.4-0.649,0.692-0.936,1.146
			c-0.621,0.983-1.656,1.614-2.325,2.564c-0.824,1.172-1.973,2.046-3.244,2.808c0.245-0.527-7.01,8.978-11.09,13.11
			c-6.284,11.404-12.514,22.792-16.391,35.357c-4.843,15.696-7.842,31.621-7.829,48.078c0.002,2.527-0.22,5.053-0.339,7.58
			c-0.203,0.927,0.118,22.527,0.309,23.353c-0.578,0.823,0.153,9.004-1.703,12.667C1274.33,860.84,1274.212,867.02,1272.001,869.625
			C1272.001,869.625,1272.001,869.625,1272.001,869.625z M1371.99,807.972c-1.958,4.402-4.684,8.219-8.508,11.201
			c-1.277,1.719-2.397,3.585-3.855,5.133c-15.084,16.016-30.384,31.821-46.426,46.889c-1.526,1.993-2.987,4.041-4.59,5.971
			c-11.437,13.778-19.272,28.899-17.899,47.503c0.025,0.339-0.068,0.786-0.282,1.023c-0.438,0.483-0.959,1.121-1.517,1.201
			c-0.58,0.083-1.595-0.243-1.815-0.688c-1.66-3.366-1.735-6.968-1.316-10.625c1.13-9.861,4.217-19.102,9.257-27.609
			c4.237-7.152,8.88-14.059,15.484-19.354c1.352-1.663,2.582-3.442,4.072-4.97c15.405-15.794,30.853-31.548,46.288-47.313
			c2.319-4.17,5.238-7.884,8.573-11.281c0,0,0,0,0,0c0.336-0.604,0.673-1.208,1.009-1.813c0.28-0.787,0.727-1.459,1.368-2
			c2.843-6.516,6.481-12.719,7.613-19.915c0.104-0.659,1.623-1.567,2.438-1.522c0.967,0.054,1.503,1.184,1.413,2.378
			c-0.675,8.864-4.521,16.417-9.639,23.45c-0.535,0.73-1.066,1.461-1.596,2.195L1371.99,807.972
			C1371.99,807.972,1371.99,807.972,1371.99,807.972z M1312.099,1050.031c-1.907,2.223-4.384,2.673-6.881,1.505
			c-2.267-1.061-4.537-2.378-6.358-4.066c-2.642-2.448-5.195-5.113-7.239-8.063c-11.431-16.503-17.344-34.877-18.164-54.898
			c-0.045-5.868,0.224-11.656,2.901-17.017c2.235-4.475,5.273-5.524,9.8-3.556c4.141,1.8,6.798,3.98,7.524,9.33
			c2.884,21.237,8.616,41.811,16.49,61.767c1.195,3.031,2.294,6.1,3.51,9.122
			C1314.647,1046.551,1313.555,1048.334,1312.099,1050.031z M1302.775,955.094c-0.847-9.381-0.55-18.883-0.453-28.326
			c0.088-8.601,2.983-16.445,8.061-23.323c4.69-6.352,10.446-12.009,15.973-17.453c26.119-21.01,45.836-47.001,60.031-76.9
			c3.64-7.666,7.644-10.396,16.233-10.37c13.435,0.04,26.518-3.826,39.433-7.582c19.503-5.673,38.919-11.659,58.497-17.064
			c13.666-3.772,27.564-6.832,41.912-5.718c28.415,2.205,53.752,11.378,73.95,32.52c8.061,8.438,15.426,17.234,21.76,27.114
			c11.77,18.359,16.334,38.565,17.462,59.894c0.077,1.451-0.034,2.919,0.124,4.359c2.553,23.295,0.609,46.413-2.368,69.537
			c-3.294,25.589-6.914,51.105-13.198,76.167c-3.89,15.511-8.522,30.779-15.281,45.323c-2.916,6.274-6.238,12.319-10.683,17.666
			c-4.104,4.938-8.937,8.778-15.812,7.992c-5.338-0.611-8.752,2.755-13.243,6.094c-1.192-2.162-1.727-3.554-2.612-4.667
			c-5.345-6.731-12.202-7.823-19.135-3.085c-3.67,2.508-6.363,5.933-8.676,9.669c-1.875,3.029-3.681,6.101-5.521,9.161
			c-10.293-6.579-10.942-6.565-23.875,0.367c-0.37-1.843-0.654-3.619-1.087-5.358c-2.633-10.566-13.67-15.72-24.152-9.849
			c-3.455,1.935-6.824,4.251-9.679,6.973c-4.193,3.997-8.092,8.35-11.753,12.847c-5.961,7.323-11.652,14.866-17.409,22.354
			c-1.889,2.457-4.155,3.549-7.371,3.737c-11.125,0.65-21.699-1.504-31.917-5.646c-13.266-5.377-24.986-13.252-35.719-22.645
			c-20.772-18.179-36.828-40.03-49.95-64.172C1317.691,1030.445,1306.282,993.941,1302.775,955.094z M1323.748,1164.204
			c8.28-11.933,11.521-25.682,13.195-39.836c0.979-8.278,1.455-16.615,2.214-24.921c0.121-1.316-0.361-2.88,1.147-3.833
			c2.791-0.117,3.314,2.45,4.476,4.042c7.717,10.568,16.066,20.585,25.397,29.766c10.65,10.479,22.312,19.644,35.433,26.857
			c12.079,6.639,24.929,11.019,38.422,12.232c0.688,2.407-0.577,3.257-1.676,4.169c-6.279,5.216-13.616,8.51-21.468,10.028
			c-26.164,5.057-48.152,17.449-66.503,36.591c-0.984,1.026-2.175,1.854-3.938,3.335c0.178-5.181-2.85-7.523-6.057-10.046
			c-11.522-9.065-18.426-21.186-22.605-35.067C1320.327,1172.677,1320.755,1168.517,1323.748,1164.204z M1161.613,1621.329
			c0.923-6.47,2.009-12.917,2.966-19.383c3.616-24.425,6.963-48.892,10.872-73.27c4.367-27.237,8.767-54.485,14.006-81.563
			c6.485-33.51,15.271-66.472,25.863-98.944c5.287-16.209,10.46-32.464,15.25-48.826c4.483-15.312,8.345-30.805,12.58-46.192
			c1.25-4.543,2.903-8.974,4.26-13.49c7.368-24.515,23.861-41.022,46.053-52.519c5.455-2.826,10.982-5.514,16.468-8.26
			c2.181,1.25,2.357,3.524,2.992,5.582c4.149,13.451,10.856,25.29,21.605,34.656c3.81,3.32,7.581,6.5,13.2,5.843
			c-0.396,1.286-0.429,2.104-0.838,2.625c-15.609,19.852-21.392,43.332-25.043,67.606c-1.678,11.157-2.559,22.365-2.361,33.657
			c0.179,10.217-1.609,20.08-4.056,30.042c-5.366,21.842-10.114,43.854-14.463,65.924c-5.478,27.797-13.096,55.075-19.243,82.701
			c-8.67,38.968-16.969,78.018-25.421,117.034c-0.921,4.25-1.81,8.507-2.795,13.143c-1.304-0.128-1.736-0.046-2.013-0.216
			c-16.318-10.019-34.385-13.118-53.152-13.513c-11.26-0.237-22.52-0.84-33.751,0.656
			C1162.321,1624.927,1161.271,1623.729,1161.613,1621.329z M1122.219,2017.147c-12.628,36.326-25.351,72.619-37.72,109.033
			c-1.58,4.654-3.864,6.061-8.461,6.46c-21.349,1.855-42.668,4.064-63.995,6.17c-18.436,1.821-36.864,3.702-55.302,5.508
			c-18.076,1.771-36.159,3.464-54.237,5.224c-19.521,1.9-39.038,3.854-58.561,5.753c-17.716,1.724-35.438,3.388-53.154,5.11
			c-19.884,1.933-39.761,3.928-59.646,5.846c-18.44,1.779-36.888,3.488-55.331,5.236c-6.821,0.646-13.642,1.319-20.066,1.942
			c-1.95-2.249-0.812-3.906-0.429-5.525c12.004-50.861,24.024-101.719,36.042-152.578c0.083-0.354,0.14-0.714,0.229-1.066
			c1.897-7.515,1.898-7.544,9.33-7.374c13.427,0.307,26.852,0.652,40.102,0.977c1.974,2.353,0.303,4.28-0.23,6.138
			c-1.806,6.284-3.664,12.5-3.733,19.157c-0.079,7.601,3.028,13.375,9.313,17.369c2.728,1.733,5.713,3.267,8.789,4.214
			c21.484,6.612,42.974,13.223,64.578,19.428c6.232,1.791,12.826,2.396,19.29,3.283c6.989,0.959,13.252-0.752,16.985-7.141
			c4.132-7.071,4.284-14.561,0.112-21.782c-1.399-2.42-3.38-4.505-5.72-7.557c3.447-0.961,6.202-0.492,8.873-0.371
			c2.898,0.131,5.798,0.398,8.675,0.778c2.516,0.332,4.994,0.945,7.502,1.359c14.654,2.421,16.862,2.269,30.388-2.173
			c0.464,4.299,0.915,8.481,1.365,12.663c0.564,0.642,1.093,1.312,1.585,2.007c0.787,1.458,1.257,3.065,2.069,4.482
			c1.394,1.634,2.461,0.82,3.45-0.504c0.86-1.435,1.436-2.997,2.328-4.39c0.502-0.697,0.906-1.444,1.223-2.24
			c-0.116-7.993-0.299-15.987-0.315-23.98c-0.007-3.479,0.931-4.542,4.455-4.793c14.495-1.037,29.002-1.909,43.501-2.896
			c28.272-1.924,56.541-3.913,84.814-5.819c16.313-1.1,32.634-2.07,48.948-3.137c7.935-0.519,15.863-1.125,23.65-1.681
			C1123.767,2013.086,1122.932,2015.095,1122.219,2017.147z M896.604,2014.276c-2.573-0.004-4.917-0.415-7.307-1.536
			c-16.353-7.674-33.401-13.629-50.201-20.204c-3.341-1.307-6.524-3.054-9.675-4.789c-1.547-0.852-0.954-3.325,0.675-4.356
			c2.263-1.432,4.725-1.96,7.261-1.662c21.2,2.497,42.64,1.239,63.817,4.105c2.605,0.353,3.903,1.498,3.912,4.09
			c0.012,3.616,0.003,7.232,0.003,10.848c0.083,0,0.166,0,0.249,0c0,1.446-0.013,2.893,0.002,4.339
			C905.435,2014.16,905.274,2014.29,896.604,2014.276z M1210.782,1907.556c-2.006,16.921-3.986,33.846-6.029,50.763
			c-1.134,9.391-1.212,18.808-1.063,28.246c0.106,6.764-0.687,7.615-7.14,7.973c-9.774,0.542-19.56,0.878-29.328,1.508
			c-24.972,1.612-49.936,3.351-74.906,4.996c-2.159,0.142-4.339-0.039-6.51-0.07c-0.517-0.52-0.646-0.985-0.392-1.395
			c0.23-0.371,0.448-0.559,0.654-0.569c1.335-1.271,3.365-0.983,4.759-2.123c13.74-6.466,26.913-14.001,40.298-21.145
			c32.369-17.274,58.829-40.602,76.992-72.804C1212.322,1902.564,1211.5,1905.09,1210.782,1907.556z M1182.452,1920.637
			c-13.943,17.087-30.948,30.607-50.094,41.472c-11.364,6.449-22.74,12.879-34.121,19.298c-12.352,6.966-25.354,12.548-38.446,17.92
			c-9.492,3.895-19.403,5.631-29.692,6.117c-18.146,0.856-36.265,2.3-54.396,3.481c-17.77,1.156-35.537,2.35-53.313,3.396
			c-5.528,0.325-5.442-0.452-5.78-7.393c0.072-5.15,0.172-10.299,0.264-15.449c4.271-3.21,9.068-0.47,13.564-1.186
			c1.069-0.17,2.185-0.046,3.262-0.188c10.338-1.358,15.621-10.174,11.744-19.957c-1.191-3.005-3.196-5.681-4.734-8.558
			c-1.168-2.184-3.471-3.792-3.426-6.623c0.959-2.399,3.636-1.98,5.324-3.243c4.602-3.441,6.304-7.967,5.128-13.392
			c-1.686-7.771-5.569-14.141-12.844-18.02c-13.011-6.937-26.877-10.868-41.589-11.736c-1.776-0.105-3.618,0.18-5.369,0.561
			c-1.935,0.421-3.045,1.831-3.299,3.809c-0.284,2.214,1.153,4.615,3.228,5.002c4.275,0.798,8.575,1.486,12.884,2.088
			c9.479,1.324,18.173,4.919,26.662,9.103c1.616,0.797,3.217,1.744,4.583,2.906c3.048,2.592,5.247,8.016,3.824,9.433
			c-2.241,2.233-5.306,2.339-8.181,2.067c-5.056-0.479-10.258-0.709-15.074-2.137c-8.414-2.494-16.986-3.744-25.61-5.001
			c-7.899-1.152-15.736-2.736-23.608-4.083c-1.402-0.24-2.946-0.633-4.243-0.283c-2.161,0.583-3.84,2.015-4.193,4.483
			c-0.283,1.971,0.397,3.708,1.921,4.806c2.382,1.718,5.188,2.497,8.09,3.02c11.788,2.126,23.548,4.411,35.349,6.463
			c5.031,0.875,9.841,2.271,14.667,3.958c8.822,3.084,14.633,9.111,18.826,17.126c2.677,5.116,1.422,7.203-4.683,7.153
			c-3.626-0.03-7.289-0.198-10.868-0.745c-25.573-3.906-51.484-3.216-77.15-5.778c-6.483-0.647-12.174,1.239-17.531,4.537
			c-1.524,0.938-2.97,2.129-4.159,3.464c-4.075,4.571-4.093,10.05-0.123,14.785c2.864,3.417,6.621,5.722,10.601,7.494
			c5.627,2.505,11.374,4.768,17.164,6.874c12.262,4.459,24.176,9.864,36.806,13.34c3.105,0.855,6.03,2.487,8.911,4.003
			c2.957,1.556,4.645,4.215,3.899,5.861c-1.055,2.332-3.294,2.655-5.498,2.701c-2.539,0.052-5.115,0.146-7.617-0.197
			c-16.91-2.322-33.806-4.755-50.705-7.153c-11.144-1.582-22.278-3.231-33.439-4.678c-1.696-0.22-3.575,0.305-5.258,0.838
			c-1.898,0.601-2.804,2.268-2.911,4.191c-0.107,1.919,0.597,3.893,2.346,4.562c3.023,1.157,6.212,2.179,9.41,2.525
			c12.535,1.356,23.659,6.779,34.877,11.864c2.9,1.315,5.541,3.532,7.828,5.81c5.31,5.288,3.906,11.015-3.045,13.354
			c-2.78,0.935-5.573,1.476-8.556,0.781c-6.708-1.562-13.563-2.596-20.153-4.537c-17.398-5.122-34.714-10.527-52.012-15.982
			c-16.938-5.342-15.156-8.195-9.351-32.78c11.733-9.227,18.588-20.6,19.882-34.784c0.295-3.234,1.168-6.431,1.953-9.601
			c1.841-7.429,5.975-13.141,12.864-16.714c1.933-1.002,3.925-1.921,5.745-3.102c8.974-5.823,12.661-14.672,13.764-24.831
			c0.912-8.394,2.894-16.453,6.861-23.925c1.525-2.872,3.29-5.657,5.254-8.248c5.134-6.773,11.923-10.35,20.564-10.422
			c9.527-0.08,18.817,1.302,27.97,3.839c34.959,9.69,69.915,19.387,104.885,29.036c8.117,2.24,16.242,3.61,24.714,1.358
			c5.027-1.336,9.529-3.313,13.579-6.553c5.699-4.56,10.847-9.667,15.671-15.123c16.316-18.455,35.764-32.901,57.308-44.638
			c4.46-2.43,9.106-4.52,13.534-7.003c5.062-2.839,10.156-5.679,14.92-8.976c20.103-13.914,30.334-33.553,33.21-57.527
			c1.693-14.109,2.309-28.248,2.196-42.429c-0.124-15.704,2.435-31.131,4.607-46.594c2.021-14.384,4.29-28.733,6.478-43.093
			c1.069-7.018,1.479-7.464,9.146-7.943c15.286-0.954,30.506,0.17,45.72,1.602c6.928,0.652,13.615,2.153,20.074,4.701
			c2.024,0.799,4.068,1.583,5.996,2.583c11.315,5.868,11.868,6.999,9.521,19.346c-4.203,22.114-8.398,44.23-12.664,66.332
			c-3.721,19.281-5.616,38.816-8.298,58.242c-2.384,17.268-3.983,34.737-7.809,51.692
			C1213.497,1869.058,1201.902,1896.8,1182.452,1920.637z M1331.084,2010.181c-8.811,6.398-17.808,12.566-26.98,18.43
			c-11.598,7.415-23.923,9.372-37.455,5.177c-19.33-5.993-34.673-17.842-49.082-31.349c-2.016-1.89-2.504-4.079-2.548-6.798
			c-0.215-13.448-0.215-26.823,1.605-40.239c4.835-35.628,9.007-71.346,13.769-106.985c2.885-21.593,6.432-43.097,9.582-64.655
			c2.625-17.964,4.404-36.082,7.781-53.9c9.397-49.57,18.312-99.237,29.165-148.526c8.976-40.759,18.417-81.403,28.028-122.018
			c7.183-30.354,14.029-60.838,19.266-91.63c0.48-2.823,0.815-5.734,2.918-8.831c10.79,0.418,21.925,0.849,32.783,1.269
			c1.203,4.631,1.977,8.555,3.249,12.31c2.777,8.195,7.819,14.806,15.309,19.178c11.351,6.627,22.759,6.227,34.109-0.349
			c2.731-1.583,4.685-4.517,7.697-5.043c1.653,0.916,1.326,2.046,1.257,3.005c-1.72,23.918-3.478,47.833-5.207,71.75
			c-0.917,12.684-1.793,25.372-2.681,38.058c-2.815,40.232-5.659,80.462-8.429,120.697c-1.796,26.099-3.476,52.207-5.221,78.31
			c-0.775,11.601-1.693,23.194-2.325,34.803c-0.266,4.877,1.46,7.207,5.262,8.329c2.195,0.647,4.272,0.453,6.216-0.876
			c2.098-1.434,4.274-2.753,6.36-4.203c13.451-9.352,28.183-16.482,42.431-24.448c5.371-3.003,4.199-1.094,15.474,9.191
			c20.379,24.095,42.379,46.804,61.738,71.767c8.233,10.617,16.084,21.531,24.041,32.361c1.49,2.029,2.654,4.297,4.498,7.322
			c-5.689,4.819-10.607,9.11-15.659,13.238c-9.844,8.043-19.882,15.855-29.625,24.019c-15.62,13.089-32.424,24.593-49.019,36.328
			c-17.231,12.185-33.625,25.396-50.086,38.53c-10.512,8.387-21.124,16.599-32.027,24.474
			C1368.434,1982.489,1349.894,1996.521,1331.084,2010.181z M1942.42,1995.18c-63.172,2.801-577.876,15.054-588.507,14.023
			c-0.839-2.028,1.148-2.452,2.078-3.138c17.257-12.719,34.73-25.15,51.836-38.068c12.468-9.415,24.602-19.286,36.646-29.243
			c16.832-13.915,35.066-25.907,52.63-38.814c12.602-9.262,24.985-18.751,36.964-28.81c11.628-9.763,23.634-19.076,35.791-28.842
			c6.911,9.356,12.151,19.278,17.166,29.308c2.756,5.513,5.068,11.25,7.572,16.889c0.736,1.657,1.321,3.395,2.19,4.977
			c1.343,2.447,4.254,3.526,6.485,2.595c2.299-0.96,4.24-3.813,3.586-6.09c-0.997-3.471-2.301-6.872-3.703-10.207
			c-9.911-23.573-23.459-45.082-37.965-65.998c-14.308-20.631-30.191-40.046-46.818-58.845
			c-14.927-16.878-29.979-33.645-44.916-50.515c-6.359-7.182-10.877-8.293-20.162-3.16c-12.383,6.845-25.089,13.172-36.681,21.394
			c-1.993,1.414-3.81,3.404-6.559,3.171c-1.254-2.279-0.532-4.43-0.39-6.51c2.036-29.736,4.086-59.47,6.205-89.2
			c2.559-35.893,5.243-71.778,7.764-107.673c1.834-26.107,3.465-52.229,5.237-78.34c1.525-22.482,3.191-44.954,4.655-67.439
			c0.779-11.962,1.255-23.944,1.879-35.917c0.24-4.613,0.341-9.257,2.174-13.539c3.296,0.239,4.637,2.71,6.546,4.241
			c9.775,7.84,20.831,13.26,32.656,17.048c10.617,3.402,21.615,2.792,32.447,1.359c23.56-3.118,46.026-10.175,67.578-20.098
			c8.566-3.944,17.087-8.052,25.33-12.624c30.166-16.728,60.418-33.326,89.559-51.814c18.4-11.674,36.514-23.798,54.758-35.719
			c1.825-1.192,3.83-2.174,5.452-3.595c3.187-2.79,6.535-2.65,10.086-1.082c4.646,2.052,9.426,3.865,13.879,6.277
			c37.697,20.415,68.245,47.708,86.068,87.812c10.823,24.352,18.753,49.551,24.776,75.399c7.09,30.43,12.832,61.137,17.608,92.011
			c5.054,32.669,10.104,65.344,14.551,98.099c5.483,40.378,7.998,81.18,13.513,121.466c2.969,49.698,8.83,99.094,11.896,148.781
			c2.51,40.671,1.968,81.415,4.16,122.078c0.307,5.694-0.248,11.439,0.75,16.736
			C1946.821,1995.589,1944.547,1995.086,1942.42,1995.18z"/></svg>